<?xml version="1.0" standalone="no"?>
<!DOCTYPE svg PUBLIC "-//W3C//DTD SVG 20010904//EN"
 "http://www.w3.org/TR/2001/REC-SVG-20010904/DTD/svg10.dtd">
<svg version="1.0" xmlns="http://www.w3.org/2000/svg"
 width="360.000000pt" height="480.000000pt" viewBox="0 0 360.000000 480.000000"
 preserveAspectRatio="xMidYMid meet">

<g transform="translate(0.000000,480.000000) scale(0.100000,-0.100000)"
fill="#000000" stroke="none">
<path d="M1595 4226 c-114 -38 -160 -59 -195 -91 -35 -32 -203 -145 -215 -145
-13 0 -115 -102 -115 -114 0 -5 -25 -39 -55 -76 -55 -68 -110 -173 -99 -191 3
-5 -11 -39 -30 -75 l-36 -65 0 -182 c0 -100 -5 -275 -11 -389 -13 -225 -12
-236 48 -458 28 -106 40 -133 53 -125 5 3 11 1 15 -5 3 -5 1 -10 -4 -10 -19 0
-12 -56 10 -84 19 -24 27 -27 72 -25 l50 3 32 -115 c18 -62 44 -152 59 -199
18 -57 29 -117 33 -185 6 -100 23 -155 49 -155 17 0 27 35 18 63 l-7 22 24
-20 c13 -10 40 -35 60 -53 24 -22 39 -30 44 -23 10 17 25 3 25 -24 0 -13 5
-27 10 -30 6 -3 10 -18 10 -33 0 -30 25 -72 42 -72 6 0 8 12 5 28 -5 27 -5 27
24 -8 31 -36 36 -50 18 -50 -5 0 -7 5 -3 12 5 7 3 8 -5 4 -9 -6 -8 -12 4 -26
9 -10 15 -23 13 -31 -2 -7 3 -14 10 -15 6 -1 20 -2 30 -4 10 -1 12 -3 5 -7 -7
-2 -13 -10 -13 -16 0 -23 32 21 34 48 4 33 27 51 39 29 6 -11 13 -12 29 -3 11
6 33 8 49 5 15 -3 30 -2 33 3 3 4 27 4 53 -2 79 -15 197 -13 225 5 13 9 39 15
58 13 26 -2 34 -7 35 -24 1 -11 -2 -21 -6 -21 -4 0 -9 -7 -13 -15 -9 -24 22
-4 69 44 39 40 40 58 2 23 -19 -16 -20 -16 -8 5 6 13 18 23 25 23 8 0 12 7 10
18 -6 23 63 79 79 63 17 -17 23 -14 84 43 37 35 60 50 65 43 9 -15 14 1 26 88
6 45 26 110 55 175 40 91 64 183 102 376 3 14 17 24 43 32 28 9 44 22 57 46
18 34 18 36 -1 71 -10 21 -25 39 -31 42 -9 4 -10 10 -2 24 13 24 29 24 29 0 0
-10 6 -24 14 -30 12 -10 20 3 45 82 l30 95 -3 245 c-2 134 -6 249 -9 254 -3 5
-8 66 -12 137 -10 198 -11 208 -44 301 -17 48 -29 91 -26 95 2 3 -7 29 -20 56
-14 27 -25 56 -25 64 -1 22 -32 58 -55 63 -21 4 -20 5 33 23 15 5 15 7 -4 14
-12 5 -25 14 -29 20 -4 6 -20 8 -40 4 -31 -5 -35 -3 -41 20 -4 16 -1 32 6 41
9 10 9 15 1 15 -6 0 -11 15 -12 33 -1 43 -13 75 -23 59 -4 -7 -12 -12 -18 -12
-6 0 -2 10 10 23 30 32 28 39 -10 32 -29 -5 -36 -2 -53 25 -24 36 -35 38 -35
8 0 -16 -3 -19 -8 -10 -5 7 -15 10 -24 7 -8 -3 -21 1 -28 10 -10 11 -15 13
-20 4 -5 -7 -23 4 -51 35 -28 30 -46 42 -50 34 -6 -9 -12 -8 -23 1 -21 17
-124 42 -128 31 -2 -5 -32 4 -68 20 -36 16 -79 30 -96 30 -17 0 -46 5 -64 11
-24 9 -34 9 -39 0 -5 -7 -17 -8 -41 -1 -46 13 -40 14 -155 -24z m50 -503 c13
-13 19 -13 25 -4 5 9 9 10 14 2 5 -8 13 -8 26 -1 11 6 21 6 24 1 12 -19 83
-23 115 -7 29 15 31 15 56 -8 15 -14 32 -27 38 -29 7 -2 11 -22 11 -45 -2 -47
3 -52 16 -19 6 16 9 17 9 5 1 -9 5 -19 9 -22 5 -3 7 7 5 22 -2 15 1 34 7 42 9
13 12 12 25 -5 30 -39 78 -86 83 -81 2 3 -8 22 -23 41 -15 20 -24 39 -21 42 3
3 0 15 -5 26 -10 18 -9 19 12 14 85 -20 152 -69 146 -107 -1 -10 5 -14 17 -12
10 2 23 -2 28 -10 7 -10 11 -10 15 -1 5 14 83 -56 83 -74 0 -5 11 -20 24 -32
13 -12 27 -39 31 -59 12 -69 20 -203 13 -227 -3 -14 -2 -27 3 -31 5 -3 9 -14
9 -25 0 -12 10 -29 23 -39 l22 -19 -25 5 c-22 5 -23 4 -7 -6 9 -6 14 -17 11
-23 -5 -9 -4 -9 5 -1 16 15 48 -17 75 -72 10 -21 24 -51 32 -65 7 -14 11 -29
8 -32 -3 -3 -2 -12 2 -19 8 -13 12 -25 18 -63 2 -11 8 -45 14 -75 21 -107 22
-186 4 -206 -16 -18 -21 -37 -25 -96 -1 -14 -5 -24 -9 -21 -9 5 -11 -9 -9 -44
1 -11 -3 -24 -9 -28 -5 -3 -8 -11 -5 -16 4 -5 1 -9 -6 -9 -7 0 -9 -10 -6 -25
3 -18 -1 -29 -15 -36 -13 -7 -17 -16 -13 -30 4 -10 2 -19 -4 -19 -5 0 -13 -10
-17 -22 -3 -12 -13 -28 -20 -36 -8 -7 -14 -25 -14 -38 0 -14 -4 -22 -10 -19
-5 3 -10 2 -10 -4 0 -5 5 -13 10 -16 6 -3 10 -12 9 -18 0 -9 -2 -9 -6 1 -9 23
-25 12 -19 -13 5 -19 2 -25 -9 -25 -13 0 -14 -4 -5 -20 10 -18 7 -24 -12 -21
-13 1 -19 -38 -9 -57 9 -17 7 -19 -13 -17 -18 2 -23 -1 -19 -14 3 -11 -2 -17
-15 -18 -14 -1 -27 13 -45 50 -15 29 -26 44 -27 35 0 -21 -11 -23 -27 -7 -9 9
-14 5 -18 -14 -4 -14 -13 -28 -22 -31 -8 -3 -11 -11 -8 -16 4 -6 1 -17 -5 -25
-7 -8 -9 -15 -4 -15 5 -1 -3 -8 -18 -16 -26 -14 -33 -25 -29 -48 1 -5 -7 -6
-18 -3 -11 3 -21 1 -23 -5 -2 -5 -18 -10 -35 -10 -18 -1 -30 -5 -28 -9 3 -4
-3 -10 -12 -13 -10 -3 -4 -4 13 -2 23 1 31 -1 27 -11 -3 -7 -20 -13 -38 -13
-32 0 -56 -24 -32 -33 7 -2 9 -7 6 -11 -9 -10 -60 4 -53 15 8 13 -9 11 -51 -6
-37 -16 -37 -16 -30 7 l7 23 -24 -22 c-18 -17 -27 -20 -36 -11 -8 8 -15 8 -29
-3 -9 -8 -5 2 10 22 l27 36 -48 -2 c-63 -3 -64 -3 -56 -17 6 -10 4 -10 -7 -1
-7 7 -21 13 -30 13 -9 0 -19 7 -23 15 -3 8 -12 15 -21 15 -8 0 -14 4 -13 8 2
5 -12 23 -29 41 -18 18 -33 39 -33 47 0 8 -4 14 -10 14 -5 0 -10 12 -10 26 0
14 -7 32 -15 41 -23 23 -14 49 15 45 14 -1 34 -4 46 -5 11 -1 37 -14 57 -30
19 -15 45 -27 56 -27 25 0 36 -16 15 -24 -10 -4 -13 -2 -8 6 4 7 3 8 -4 4 -32
-20 20 -66 74 -66 15 0 24 -3 21 -7 -4 -3 1 -12 11 -19 11 -9 13 -13 4 -14 -7
0 -10 -5 -7 -11 4 -6 14 -8 22 -5 8 3 11 1 8 -4 -3 -6 -16 -10 -28 -11 -20 -1
-20 -2 3 -9 37 -12 70 -11 70 1 0 6 -9 8 -22 4 -23 -7 -23 -7 1 10 13 10 41
18 62 19 42 1 55 16 14 16 -14 0 -25 4 -25 9 0 13 30 22 51 16 11 -4 19 -2 19
3 0 5 18 17 40 27 40 18 52 35 25 35 -8 0 -15 5 -15 10 0 6 4 10 10 10 11 0
42 23 84 65 17 16 33 30 36 30 3 1 16 5 28 9 19 6 27 3 39 -14 8 -12 20 -19
27 -17 6 3 22 -4 35 -14 13 -11 20 -19 17 -19 -4 0 -4 -6 1 -12 12 -21 20 41
13 116 -5 56 -10 72 -29 88 -18 14 -26 16 -32 7 -5 -8 -15 -4 -35 15 -21 18
-40 26 -66 26 -21 0 -38 4 -38 8 0 5 -8 17 -17 28 -47 51 -47 53 -26 77 12 12
24 32 28 45 6 21 5 22 -13 11 -17 -10 -25 -8 -53 14 -31 24 -35 25 -61 11 -15
-8 -28 -19 -28 -24 0 -5 -16 -17 -36 -25 -45 -19 -113 -5 -121 25 -7 27 -38
31 -83 9 -48 -24 -60 -24 -60 -1 0 30 18 46 67 63 43 14 48 19 49 47 1 17 7
38 14 47 17 20 19 103 3 110 -7 2 -13 -2 -13 -10 0 -8 -7 -15 -16 -15 -8 0
-13 -4 -10 -9 9 -13 -30 -80 -59 -103 -33 -26 -64 -91 -65 -135 0 -22 9 -41
31 -62 17 -17 36 -31 42 -31 6 0 1 -7 -11 -16 -12 -8 -22 -21 -22 -29 0 -20
-82 -83 -88 -67 -3 10 -10 9 -29 -4 -18 -11 -23 -12 -18 -3 5 8 -7 1 -25 -16
-72 -65 -68 -58 -73 -140 -1 -22 -6 -46 -11 -54 -6 -9 -5 -12 5 -9 8 3 13 16
12 29 -1 13 1 18 3 11 3 -6 11 -9 16 -6 7 4 8 2 4 -5 -4 -6 -3 -18 3 -25 14
-17 -4 -71 -20 -60 -6 3 -15 0 -20 -7 -4 -8 -19 -14 -33 -14 -14 -1 -22 3 -19
7 2 5 -1 15 -7 23 -7 8 -10 24 -7 35 3 10 2 18 -2 17 -3 -1 -8 3 -10 8 -2 6
-12 16 -23 24 -14 9 -18 20 -14 37 5 18 -1 31 -24 54 -16 16 -30 34 -30 39 0
5 -10 7 -22 3 -17 -4 -20 -2 -15 11 3 9 0 20 -7 24 -7 5 -21 32 -31 61 -9 29
-26 58 -36 65 -10 6 -19 15 -19 20 0 4 4 6 9 3 5 -4 1 11 -9 31 -10 21 -16 41
-13 45 2 5 0 8 -5 8 -6 0 -15 23 -22 51 -7 28 -23 62 -36 76 -31 34 -38 76
-31 196 5 80 12 112 36 165 33 74 46 113 43 126 -2 4 2 14 8 20 5 7 8 16 5 20
-3 3 1 2 7 -4 20 -16 29 -11 18 10 -8 15 -6 21 9 30 11 5 22 19 26 30 3 11 12
19 18 17 7 -1 11 6 9 15 -2 10 2 27 9 39 14 26 22 152 10 144 -14 -8 -18 25
-9 65 4 19 8 51 8 71 0 20 7 53 15 73 8 20 13 36 9 36 -3 0 4 13 15 29 11 15
18 30 15 33 -2 3 3 11 13 19 15 12 16 12 8 -1 -4 -8 5 -3 22 13 16 15 34 27
41 27 7 0 12 4 12 8 0 13 76 36 94 29 18 -7 106 21 106 33 0 5 10 11 23 13 12
2 23 5 24 6 1 0 9 -6 18 -16z m-765 -1087 c0 -33 -3 -56 -7 -52 -9 9 -22 118
-15 130 10 18 22 -22 22 -78z m99 7 c-1 -10 1 -25 4 -33 17 -44 26 -89 25
-122 l-2 -37 -26 17 c-14 9 -34 22 -45 28 -31 18 -24 98 13 135 32 34 34 34
31 12z m12 -273 c13 0 18 -6 16 -20 -5 -31 -14 -33 -37 -10 -15 15 -19 27 -14
43 7 19 8 19 12 5 2 -10 12 -18 23 -18z m1056 -56 c-3 -3 -12 -4 -19 -1 -8 3
-5 6 6 6 11 1 17 -2 13 -5z m-240 -17 c9 -16 66 -37 98 -37 12 0 39 12 60 26
27 18 41 22 48 15 8 -8 7 -11 -1 -11 -7 0 -12 -11 -12 -24 0 -18 -6 -25 -22
-28 -18 -2 -23 -10 -23 -35 -1 -26 5 -35 27 -44 15 -6 28 -15 28 -20 0 -5 14
-9 30 -9 19 0 31 -5 32 -15 0 -8 1 -21 2 -27 1 -9 -14 -12 -50 -10 -30 2 -66
-3 -87 -12 -32 -13 -40 -13 -64 -1 -38 20 -83 19 -143 -5 -61 -24 -60 -24 -60
-4 0 8 4 13 9 10 5 -4 7 2 5 12 -4 15 1 17 33 16 25 -2 45 4 58 16 11 9 28 16
38 15 9 -2 17 3 17 10 0 7 7 18 15 25 8 7 15 17 15 22 0 6 -7 5 -16 -3 -13
-11 -14 -9 -8 15 7 28 -15 56 -76 98 l-25 18 32 0 c18 0 36 -6 40 -13z m-776
-60 c-8 -8 -11 -7 -11 4 0 20 13 34 18 19 3 -7 -1 -17 -7 -23z m1117 -165 c-2
-12 -11 -16 -28 -14 -33 5 -34 6 -19 30 10 16 17 18 32 11 10 -6 17 -18 15
-27z m-526 -26 c7 4 8 2 4 -4 -11 -18 -26 -14 -25 6 0 10 3 12 6 4 2 -6 10 -9
15 -6z m364 -75 c-7 -10 17 -21 45 -21 37 0 15 -51 -34 -76 -22 -12 -51 -16
-92 -14 -33 1 -78 3 -99 3 -22 1 -34 3 -27 5 9 3 8 10 -4 28 -14 22 -14 26 2
49 16 22 24 24 71 21 29 -2 67 0 85 4 45 11 59 11 53 1z m-479 -73 c-3 -7 -5
-2 -5 12 0 14 2 19 5 13 2 -7 2 -19 0 -25z m305 -280 c-7 -7 -12 -8 -12 -2 0
6 3 14 7 17 3 4 9 5 12 2 2 -3 -1 -11 -7 -17z m-468 -14 c23 -9 20 -23 -4 -17
-11 3 -20 9 -20 14 0 11 3 11 24 3z m56 -50 c0 -2 -7 -4 -15 -4 -8 0 -15 4
-15 10 0 5 7 7 15 4 8 -4 15 -8 15 -10z m900 -64 c0 -5 -4 -10 -10 -10 -5 0
-10 5 -10 10 0 6 5 10 10 10 6 0 10 -4 10 -10z m-611 -133 c-2 -1 -12 -9 -22
-16 -15 -12 -17 -12 -11 3 3 9 13 16 22 16 8 0 13 -1 11 -3z m-104 -46 c3 -5
2 -12 -3 -15 -5 -3 -9 1 -9 9 0 17 3 19 12 6z"/>
<path d="M2310 3039 c0 -8 -12 -10 -36 -6 -41 7 -195 -9 -203 -20 -3 -5 -12
-8 -18 -9 -7 -1 -19 -2 -27 -2 -14 -2 -66 -81 -66 -101 0 -6 8 -20 17 -31 17
-20 17 -20 43 4 14 13 48 28 75 34 110 24 194 34 212 27 10 -5 24 -7 31 -6 8
1 21 -4 30 -11 48 -38 126 -64 151 -49 10 7 10 9 -2 14 -9 3 -12 15 -10 34 3
20 -4 37 -24 61 -16 17 -34 32 -41 32 -7 0 -12 4 -12 10 0 10 -63 30 -97 30
-13 0 -23 -5 -23 -11z"/>
<path d="M1342 3025 c-23 -7 -49 -19 -57 -25 -8 -7 -25 -10 -38 -8 -13 2 -27
0 -33 -6 -22 -25 -57 -79 -46 -72 7 4 12 1 12 -9 0 -10 -5 -13 -12 -9 -10 6
-10 4 0 -8 8 -10 9 -17 3 -20 -15 -5 -1 -48 15 -48 8 0 17 -7 20 -15 5 -12 10
-10 24 8 15 18 21 20 32 9 11 -11 9 -16 -12 -32 l-24 -18 19 -24 c11 -13 20
-24 20 -25 0 -1 20 -6 43 -11 32 -8 46 -7 56 3 7 8 33 14 57 14 70 1 99 5 99
15 0 5 6 3 14 -3 10 -8 16 -9 21 -1 3 5 30 10 59 10 64 0 73 7 45 36 -12 12
-16 24 -11 28 20 12 38 -5 51 -50 10 -32 17 -42 25 -35 9 7 12 1 14 -21 4 -47
12 -52 33 -19 21 35 36 111 22 111 -5 0 -8 13 -7 30 1 16 -2 28 -6 25 -5 -3
-11 -1 -15 5 -3 5 -2 10 4 10 7 0 7 8 2 23 -4 12 -6 27 -4 33 2 6 -3 17 -12
24 -8 7 -15 17 -15 23 0 13 -27 34 -69 52 -35 16 -175 19 -221 6 -14 -4 -34
-5 -45 -1 -11 4 -39 2 -63 -5z m310 -119 c29 -21 19 -23 -133 -34 -102 -8
-138 -15 -183 -35 -51 -24 -58 -25 -63 -10 -4 9 -1 19 5 21 7 2 19 10 26 18 8
8 21 14 30 14 8 0 18 5 21 10 4 6 11 8 16 5 5 -4 9 -2 9 3 0 20 50 29 148 26
71 -2 109 -8 124 -18z m-159 -63 c-7 -2 -21 -2 -30 0 -10 3 -4 5 12 5 17 0 24
-2 18 -5z m101 -52 c3 -5 -1 -12 -10 -15 -22 -9 -24 -8 -24 9 0 16 25 21 34 6z"/>
<path d="M2047 2847 c-28 -15 -54 -32 -58 -38 -4 -7 -9 -4 -13 6 -3 9 -10 13
-16 10 -12 -8 -13 -67 -1 -80 5 -6 14 -27 21 -47 6 -21 16 -40 21 -43 5 -3 6
0 3 8 -10 26 -9 105 1 104 6 -1 10 9 10 23 0 21 5 25 35 28 33 3 34 3 17 -15
-22 -25 -22 -47 -1 -39 21 8 56 -3 49 -15 -4 -5 -1 -9 4 -9 6 0 11 4 11 9 0 5
9 7 19 4 11 -3 27 0 37 5 11 6 27 7 41 1 30 -11 170 -20 200 -13 49 13 11 82
-60 108 -51 18 -115 27 -121 18 -2 -4 -37 -5 -76 -2 -65 5 -77 3 -123 -23z
m103 -47 c0 -5 -7 -10 -16 -10 -8 0 -12 5 -9 10 3 6 10 10 16 10 5 0 9 -4 9
-10z"/>
<path d="M2571 2764 c0 -11 3 -14 6 -6 3 7 2 16 -1 19 -3 4 -6 -2 -5 -13z"/>
<path d="M1983 2595 c0 -13 6 -30 15 -37 13 -11 15 -10 9 12 -4 14 -7 31 -7
38 0 6 -4 12 -9 12 -5 0 -8 -11 -8 -25z"/>
<path d="M1065 2580 c3 -5 8 -10 11 -10 2 0 4 5 4 10 0 6 -5 10 -11 10 -5 0
-7 -4 -4 -10z"/>
<path d="M1054 2530 c3 -35 26 -67 26 -34 0 29 -11 64 -20 64 -4 0 -7 -14 -6
-30z"/>
<path d="M2013 2525 c0 -8 4 -12 9 -9 5 3 6 10 3 15 -9 13 -12 11 -12 -6z"/>
<path d="M2018 2475 c-4 -20 -1 -25 14 -25 11 0 28 -5 39 -10 23 -13 24 -6 2
31 -21 36 -49 38 -55 4z"/>
<path d="M1050 1445 c-130 -131 -229 -204 -330 -243 -30 -11 -170 -61 -310
-111 -140 -49 -290 -102 -332 -118 l-78 -28 0 -472 0 -473 751 0 751 0 -6 22
c-14 47 -66 266 -81 343 -21 104 -35 146 -44 140 -5 -2 -27 62 -49 143 -62
222 -71 263 -71 312 0 25 -11 75 -25 111 -74 195 -88 362 -41 482 15 36 -14
13 -135 -108z"/>
<path d="M2470 1544 c0 -6 7 -33 15 -60 30 -100 11 -282 -45 -439 -12 -33 -23
-87 -25 -120 -2 -49 -90 -436 -103 -455 -2 -2 -7 1 -11 8 -4 7 -17 -40 -31
-110 -12 -68 -36 -176 -51 -242 -16 -65 -29 -120 -29 -122 0 -2 317 -4 705 -4
l705 0 0 464 c0 432 -1 464 -17 471 -115 45 -351 132 -532 196 -123 43 -245
91 -270 106 -75 44 -168 138 -298 303 -7 8 -13 10 -13 4z"/>
<path d="M1385 1420 c-3 -6 1 -7 9 -4 18 7 21 14 7 14 -6 0 -13 -4 -16 -10z"/>
<path d="M1768 988 c-24 -29 -55 -70 -68 -90 -13 -20 -27 -35 -31 -32 -4 2
-30 -27 -58 -65 -54 -72 -65 -118 -38 -155 11 -16 15 -15 42 14 16 16 38 30
48 30 19 0 19 -5 13 -72 -4 -41 -14 -84 -25 -102 -19 -32 -64 -173 -76 -238
-4 -21 -11 -35 -16 -32 -14 8 -17 -10 -23 -133 l-6 -113 312 0 313 0 -7 88
c-3 48 -7 97 -7 110 -1 13 -5 21 -10 17 -6 -3 -13 11 -17 32 -10 58 -53 201
-82 273 -25 61 -31 124 -13 143 4 4 20 -6 36 -23 45 -47 65 -36 65 34 0 22
-13 51 -43 92 -24 32 -70 96 -102 141 -32 45 -66 90 -77 99 -17 16 -19 16 -41
-4 -17 -16 -26 -18 -40 -11 -13 8 -15 14 -7 30 18 33 3 21 -42 -33z"/>
</g>
</svg>
